<svg width="158" height="70" viewBox="0 0 158 70" fill="none" xmlns="http://www.w3.org/2000/svg">
<rect x="142" width="16" height="16" fill="#BC002D"/>
<path d="M4.15483 57V19.1818H9.8608V37.2415H10.3224L26.1847 19.1818H33.3679L18.1151 36.2074L33.4233 57H26.554L14.3295 40.1037L9.8608 45.2372V57H4.15483ZM69.658 38.0909C69.658 42.1288 68.9194 45.6004 67.4421 48.5057C65.9648 51.3987 63.9398 53.6269 61.3668 55.1903C58.8062 56.7415 55.8948 57.517 52.6325 57.517C49.3578 57.517 46.4341 56.7415 43.8612 55.1903C41.3005 53.6269 39.2816 51.3925 37.8043 48.4872C36.3271 45.5819 35.5884 42.1165 35.5884 38.0909C35.5884 34.053 36.3271 30.5876 37.8043 27.6946C39.2816 24.7893 41.3005 22.5611 43.8612 21.0099C46.4341 19.4465 49.3578 18.6648 52.6325 18.6648C55.8948 18.6648 58.8062 19.4465 61.3668 21.0099C63.9398 22.5611 65.9648 24.7893 67.4421 27.6946C68.9194 30.5876 69.658 34.053 69.658 38.0909ZM64.0075 38.0909C64.0075 35.0133 63.5089 32.4219 62.5117 30.3168C61.5269 28.1993 60.1727 26.599 58.4492 25.5156C56.738 24.42 54.7991 23.8722 52.6325 23.8722C50.4535 23.8722 48.5084 24.42 46.7972 25.5156C45.0861 26.599 43.7319 28.1993 42.7347 30.3168C41.7499 32.4219 41.2575 35.0133 41.2575 38.0909C41.2575 41.1686 41.7499 43.7661 42.7347 45.8835C43.7319 47.9886 45.0861 49.589 46.7972 50.6847C48.5084 51.768 50.4535 52.3097 52.6325 52.3097C54.7991 52.3097 56.738 51.768 58.4492 50.6847C60.1727 49.589 61.5269 47.9886 62.5117 45.8835C63.5089 43.7661 64.0075 41.1686 64.0075 38.0909ZM102.366 31.1293C102.009 30.009 101.529 29.0057 100.925 28.1193C100.335 27.2206 99.6267 26.4574 98.8018 25.8295C97.977 25.1894 97.0353 24.7031 95.9766 24.3707C94.9302 24.0384 93.7791 23.8722 92.5234 23.8722C90.3937 23.8722 88.4732 24.42 86.7621 25.5156C85.0509 26.6113 83.6967 28.2178 82.6996 30.3352C81.7147 32.4403 81.2223 35.0194 81.2223 38.0724C81.2223 41.1378 81.7209 43.7292 82.718 45.8466C83.7152 47.964 85.0817 49.5705 86.8175 50.6662C88.5533 51.7618 90.5291 52.3097 92.745 52.3097C94.8009 52.3097 96.5921 51.8911 98.1186 51.054C99.6574 50.2169 100.845 49.035 101.683 47.5085C102.532 45.9697 102.957 44.16 102.957 42.0795L104.434 42.3565H93.6129V37.6477H108.478V41.9503C108.478 45.1264 107.801 47.884 106.447 50.223C105.105 52.5497 103.246 54.3471 100.87 55.6151C98.5064 56.883 95.7981 57.517 92.745 57.517C89.3227 57.517 86.3189 56.7292 83.7337 55.1534C81.1607 53.5777 79.1541 51.3433 77.7138 48.4503C76.2734 45.545 75.5533 42.098 75.5533 38.1094C75.5533 35.0933 75.9718 32.3849 76.8089 29.9844C77.6461 27.5838 78.8217 25.5464 80.3359 23.8722C81.8625 22.1856 83.6536 20.8991 85.7095 20.0128C87.7777 19.1141 90.0367 18.6648 92.4865 18.6648C94.5301 18.6648 96.4321 18.9664 98.1925 19.5696C99.9652 20.1728 101.541 21.0284 102.92 22.1364C104.311 23.2443 105.462 24.5616 106.373 26.0881C107.284 27.6023 107.899 29.2827 108.219 31.1293H102.366ZM115.721 57V19.1818H139.431V24.0938H121.427V35.6165H138.194V40.5099H121.427V52.0881H139.653V57H115.721ZM152.759 19.1818V57H147.053V19.1818H152.759Z" fill="black"/>
</svg>
