<svg width="144" height="59" viewBox="0 0 144 59" fill="none" xmlns="http://www.w3.org/2000/svg">
<path d="M4.22727 47V12.0909H8.45455V29.4091H8.86364L24.5455 12.0909H30.0682L15.4091 27.8409L30.0682 47H24.9545L12.8182 30.7727L8.45455 35.6818V47H4.22727ZM63.3537 29.5455C63.3537 33.2273 62.6889 36.4091 61.3594 39.0909C60.0298 41.7727 58.206 43.8409 55.8878 45.2955C53.5696 46.75 50.9219 47.4773 47.9446 47.4773C44.9673 47.4773 42.3196 46.75 40.0014 45.2955C37.6832 43.8409 35.8594 41.7727 34.5298 39.0909C33.2003 36.4091 32.5355 33.2273 32.5355 29.5455C32.5355 25.8636 33.2003 22.6818 34.5298 20C35.8594 17.3182 37.6832 15.25 40.0014 13.7955C42.3196 12.3409 44.9673 11.6136 47.9446 11.6136C50.9219 11.6136 53.5696 12.3409 55.8878 13.7955C58.206 15.25 60.0298 17.3182 61.3594 20C62.6889 22.6818 63.3537 25.8636 63.3537 29.5455ZM59.2628 29.5455C59.2628 26.5227 58.7571 23.9716 57.7457 21.892C56.7457 19.8125 55.3878 18.2386 53.6719 17.1705C51.9673 16.1023 50.0582 15.5682 47.9446 15.5682C45.831 15.5682 43.9162 16.1023 42.2003 17.1705C40.4957 18.2386 39.1378 19.8125 38.1264 21.892C37.1264 23.9716 36.6264 26.5227 36.6264 29.5455C36.6264 32.5682 37.1264 35.1193 38.1264 37.1989C39.1378 39.2784 40.4957 40.8523 42.2003 41.9205C43.9162 42.9886 45.831 43.5227 47.9446 43.5227C50.0582 43.5227 51.9673 42.9886 53.6719 41.9205C55.3878 40.8523 56.7457 39.2784 57.7457 37.1989C58.7571 35.1193 59.2628 32.5682 59.2628 29.5455ZM94.3253 23C93.9503 21.8523 93.456 20.8239 92.8423 19.9148C92.2401 18.9943 91.5185 18.2102 90.6776 17.5625C89.848 16.9148 88.9048 16.4205 87.848 16.0795C86.7912 15.7386 85.6321 15.5682 84.3707 15.5682C82.3026 15.5682 80.4219 16.1023 78.7287 17.1705C77.0355 18.2386 75.6889 19.8125 74.6889 21.892C73.6889 23.9716 73.1889 26.5227 73.1889 29.5455C73.1889 32.5682 73.6946 35.1193 74.706 37.1989C75.7173 39.2784 77.0866 40.8523 78.8139 41.9205C80.5412 42.9886 82.4844 43.5227 84.6435 43.5227C86.6435 43.5227 88.4048 43.0966 89.9276 42.2443C91.4616 41.3807 92.6548 40.1648 93.5071 38.5966C94.3707 37.017 94.8026 35.1591 94.8026 33.0227L96.098 33.2955H85.598V29.5455H98.8935V33.2955C98.8935 36.1705 98.2798 38.6705 97.0526 40.7955C95.8366 42.9205 94.1548 44.5682 92.0071 45.7386C89.8707 46.8977 87.4162 47.4773 84.6435 47.4773C81.5526 47.4773 78.8366 46.75 76.4957 45.2955C74.1662 43.8409 72.348 41.7727 71.0412 39.0909C69.7457 36.4091 69.098 33.2273 69.098 29.5455C69.098 26.7841 69.4673 24.3011 70.206 22.0966C70.956 19.8807 72.0128 17.9943 73.3764 16.4375C74.7401 14.8807 76.3537 13.6875 78.2173 12.858C80.081 12.0284 82.1321 11.6136 84.3707 11.6136C86.2116 11.6136 87.9276 11.892 89.5185 12.4489C91.1207 12.9943 92.5469 13.7727 93.7969 14.7841C95.0582 15.7841 96.1094 16.983 96.9503 18.3807C97.7912 19.767 98.3707 21.3068 98.6889 23H94.3253ZM106.134 47V12.0909H127.202V15.8409H110.361V27.6364H126.111V31.3864H110.361V43.25H127.474V47H106.134ZM139.048 12.0909V47H134.821V12.0909H139.048Z" fill="black"/>
<rect x="132" width="10" height="10" fill="#BC002D"/>
</svg>
